<svg id="Warstwa_1" xmlns="http://www.w3.org/2000/svg" viewBox="0 0 600 600"><style>.st0{fill:#e60021}</style><path class="st0" d="M391.5 433.8l29.8-29.7-29.8-29.7L466 300 348.4 180 317 211.3l89.4 88.7-74.5 74.3 59.6 59.5zm14.3-312.9l-1.3-.9-58.1 58.1-27.7-27.6 29.6-29.6-1.3-.9-29.4 29.4-.7-.7L196 269.5l-60.9-60.7-.9 1.3 60.7 60.5-27.7 27.6-32.1-32-.9 1.3 31.9 31.8-.8.8.9.8-32.2 32.2 1.3.9 32-32 27.7 27.6-61 60.9 1.3.9 60.7-60.7 121 120.7.8-.8 29.5 29.4.9-1.3-29.3-29.2 27.7-27.6 58.3 58.1.9-1.3-58-57.9.8-.8-120.5-120 120.3-120-.8-.8 58.2-58.3zM170.6 300l26.9-26.9 26.1 26.1-.8.8.8.8-26.1 26.1-26.9-26.9zm172.5 120L317 446.1 198.6 328l26.1-26.1L343.1 420zM224.7 298.2l-26.1-26.1L317 153.9l26.1 26.1-118.4 118.2z"/></svg>