<svg id="Warstwa_1" xmlns="http://www.w3.org/2000/svg" viewBox="0 0 138 23"><style>.st0{opacity:.5}.st1{fill:#282828}</style><g class="st0"><path class="st1" d="M9.3 6.7c-1-.9-2.5-1.9-4.5-1.9-2.7 0-4.8 2-4.8 6.8s2.2 6.7 4.8 6.7c2 0 3.5-1 4.5-1.9V23h2V5h-2v1.7zm0 7.8c-1 1.1-2.5 2.1-4.1 2.1-2.1 0-3.2-1.9-3.2-5 0-3.2 1.1-5.1 3.2-5.1 1.6 0 3.1.9 4.1 2.1v5.9zm15.9-.1c-.9.8-2.9 2.1-4.6 2.1s-2.2-1.2-2.2-2.7V5h-2v9.2c0 2.2.8 4 3.6 4 2.2 0 4.3-1.4 5.2-2.1V18h2V5h-2v9.4zM38 4.8c-1.7 0-3.6.4-5.7 1.2l.7 1.5c1.8-.6 3.3-1.1 4.7-1.1 2.1 0 2.7.9 2.7 2.7v1.5c-1-.2-3.1-.7-4.6-.7-2.3 0-4.4 1.3-4.4 4.2 0 3 2.2 4.1 4.3 4.1 2.1 0 3.7-1.1 4.7-2V18h2V9c0-3.1-1.6-4.2-4.4-4.2zm2.4 9.8c-1.2 1.1-2.5 1.9-4.2 1.9-1.5 0-2.7-.7-2.7-2.5 0-1.5.8-2.8 3.1-2.8 1.3 0 2.9.4 3.8.6v2.8zm9.1-6.8V5h-2v13h2v-7.1s.5-4.1 4.8-4.1V4.9c-3.4-.3-4.7 2.4-4.8 2.9zM56.6 18h2.3v-3h-2.3v3zm12.1-7.4c-1.3-.3-3.4-.8-3.4-2.3 0-1.1 1-1.8 2.5-1.8 1.3 0 2.9.5 4.1 1.1l.9-1.4c-1.2-.6-3.1-1.3-5-1.3-2.6 0-4.4 1.3-4.4 3.5 0 2.5 2.3 3.3 4.2 3.9 1.6.4 3.8.9 3.8 2.5 0 1.2-1.3 1.9-2.7 1.9-1.5 0-3.4-.8-4.7-1.4l-1 1.4c1.3.7 3.5 1.6 5.7 1.6 2.5 0 4.6-1.2 4.6-3.6 0-2.3-1.9-3.4-4.6-4.1zm12.6 5.8c-.7 0-1.2-.3-1.2-1.4V6.6h3.5V5h-3.5V1.3l-2 .5V5h-1.8v1.6h1.8V15c0 2.5 1.2 3.3 2.8 3.3 1.4 0 2.9-.6 3.5-.9l-.7-1.6c-.4.2-1.7.6-2.4.6zm15.4-2c-.9.8-2.9 2.1-4.6 2.1s-2.2-1.2-2.2-2.7V5h-2v9.2c0 2.2.8 4 3.6 4 2.2 0 4.3-1.4 5.2-2.1V18h2V5h-2v9.4zm15.8-7.7c-1-.9-2.5-1.9-4.5-1.9-2.7 0-4.8 2-4.8 6.8s2.2 6.7 4.8 6.7c2 0 3.5-1 4.5-1.9V18h2V0h-2v6.7zm0 7.8c-1 1.1-2.5 2.1-4.1 2.1-2.1 0-3.2-1.9-3.2-5 0-3.2 1.1-5.1 3.2-5.1 1.6 0 3.1.9 4.1 2.1v5.9zm7-12h2.2V.1h-2.2v2.4zm.1 15.5h2V5h-2v13zM132 4.8c-3.9 0-6 2.6-6 6.8s2.1 6.7 6 6.7 6-2.5 6-6.7c0-4.3-2.1-6.8-6-6.8zm0 11.8c-2.8 0-3.9-2-3.9-5.1s1.2-5.1 3.9-5.1c2.8 0 3.9 2 3.9 5.1s-1.1 5.1-3.9 5.1z"/></g></svg>