<?xml version="1.0" encoding="utf-8"?>
<!-- Generator: Adobe Illustrator 22.0.1, SVG Export Plug-In . SVG Version: 6.00 Build 0)  -->
<svg version="1.1" id="Warstwa_1" xmlns="http://www.w3.org/2000/svg" xmlns:xlink="http://www.w3.org/1999/xlink" x="0px" y="0px"
	 viewBox="0 0 138 23" style="enable-background:new 0 0 138 23;" xml:space="preserve">
<g>
	<g>
		<path d="M9.3,6.7c-1-0.9-2.5-1.9-4.5-1.9c-2.7,0-4.8,2-4.8,6.8c0,4.8,2.2,6.7,4.8,6.7c2,0,3.5-1,4.5-1.9V23h2V5h-2V6.7z M9.3,14.5
			c-1,1.1-2.5,2.1-4.1,2.1c-2.1,0-3.2-1.9-3.2-5c0-3.2,1.1-5.1,3.2-5.1c1.6,0,3.1,0.9,4.1,2.1V14.5z M25.2,14.4
			c-0.9,0.8-2.9,2.1-4.6,2.1c-1.7,0-2.2-1.2-2.2-2.7V5h-2v9.2c0,2.2,0.8,4,3.6,4c2.2,0,4.3-1.4,5.2-2.1V18h2V5h-2V14.4z M38,4.8
			c-1.7,0-3.6,0.4-5.7,1.2l0.7,1.5c1.8-0.6,3.3-1.1,4.7-1.1c2.1,0,2.7,0.9,2.7,2.7v1.5c-1-0.2-3.1-0.7-4.6-0.7
			c-2.3,0-4.4,1.3-4.4,4.2c0,3,2.2,4.1,4.3,4.1c2.1,0,3.7-1.1,4.7-2V18h2V9C42.4,5.9,40.8,4.8,38,4.8z M40.4,14.6
			c-1.2,1.1-2.5,1.9-4.2,1.9c-1.5,0-2.7-0.7-2.7-2.5c0-1.5,0.8-2.8,3.1-2.8c1.3,0,2.9,0.4,3.8,0.6V14.6z M49.5,7.8V5h-2V18h2v-7.1
			c0,0,0.5-4.1,4.8-4.1V4.9C50.9,4.6,49.6,7.3,49.5,7.8z M56.6,18h2.3v-3h-2.3V18z M68.7,10.6c-1.3-0.3-3.4-0.8-3.4-2.3
			c0-1.1,1-1.8,2.5-1.8c1.3,0,2.9,0.5,4.1,1.1l0.9-1.4c-1.2-0.6-3.1-1.3-5-1.3c-2.6,0-4.4,1.3-4.4,3.5c0,2.5,2.3,3.3,4.2,3.9
			c1.6,0.4,3.8,0.9,3.8,2.5c0,1.2-1.3,1.9-2.7,1.9c-1.5,0-3.4-0.8-4.7-1.4L63,16.7c1.3,0.7,3.5,1.6,5.7,1.6c2.5,0,4.6-1.2,4.6-3.6
			C73.3,12.4,71.4,11.3,68.7,10.6z M81.3,16.4c-0.7,0-1.2-0.3-1.2-1.4V6.6h3.5V5h-3.5V1.3l-2,0.5V5h-1.8v1.6h1.8V15
			c0,2.5,1.2,3.3,2.8,3.3c1.4,0,2.9-0.6,3.5-0.9l-0.7-1.6C83.3,16,82,16.4,81.3,16.4z M96.7,14.4c-0.9,0.8-2.9,2.1-4.6,2.1
			c-1.7,0-2.2-1.2-2.2-2.7V5h-2v9.2c0,2.2,0.8,4,3.6,4c2.2,0,4.3-1.4,5.2-2.1V18h2V5h-2V14.4z M112.5,6.7c-1-0.9-2.5-1.9-4.5-1.9
			c-2.7,0-4.8,2-4.8,6.8c0,4.8,2.2,6.7,4.8,6.7c2,0,3.5-1,4.5-1.9V18h2V0h-2V6.7z M112.5,14.5c-1,1.1-2.5,2.1-4.1,2.1
			c-2.1,0-3.2-1.9-3.2-5c0-3.2,1.1-5.1,3.2-5.1c1.6,0,3.1,0.9,4.1,2.1V14.5z M119.5,2.5h2.2V0.1h-2.2V2.5z M119.6,18h2V5h-2V18z
			 M132,4.8c-3.9,0-6,2.6-6,6.8c0,4.2,2.1,6.7,6,6.7c3.9,0,6-2.5,6-6.7C138,7.3,135.9,4.8,132,4.8z M132,16.6c-2.8,0-3.9-2-3.9-5.1
			s1.2-5.1,3.9-5.1c2.8,0,3.9,2,3.9,5.1S134.8,16.6,132,16.6z"/>
	</g>
</g>
</svg>
