<?xml version="1.0" encoding="utf-8"?>
<!-- Generator: Adobe Illustrator 22.0.1, SVG Export Plug-In . SVG Version: 6.00 Build 0)  -->
<svg version="1.1" id="Warstwa_1" xmlns="http://www.w3.org/2000/svg" xmlns:xlink="http://www.w3.org/1999/xlink" x="0px" y="0px"
	 viewBox="0 0 44 28" style="enable-background:new 0 0 44 28;" xml:space="preserve">
<style type="text/css">
	.st0{fill-rule:evenodd;clip-rule:evenodd;}
</style>
<path class="st0" d="M0,0c3,0,6.1,0,9.1,0c0.8,0,1.7,0,2.5,0c0.4,0,0.8,0,1.3,0c0.2,0,0.5,0,0.6,0c0.1,0,0.2,0,0.3,0
	c0.1,0,0.3,0,0.5,0.1c0.2,0,0.4,0,0.6,0.1c0.6,0.2,1.3,0.2,1.9,0.4c1.7,0.6,2.9,1.5,3.7,2.9c0.4,0.6,0.6,1.3,0.8,2
	c0,0.3,0.1,0.5,0.1,0.8c0,0.1,0,0.2,0,0.4c0.1,0.4,0,1.4-0.1,1.8c0,0.1,0,0.2,0,0.2c-0.1,0.3-0.1,0.6-0.2,0.8
	c-0.4,1.1-0.9,2-1.7,2.6c-0.3,0.2-0.6,0.4-0.9,0.6c-0.1,0.1-0.3,0.1-0.4,0.2c0.2,0,0.3,0.1,0.4,0.2c0.5,0.2,0.9,0.4,1.3,0.7
	c1,0.7,1.7,1.8,2.2,3.1c0.1,0.3,0.2,0.7,0.2,1c0,0.1,0,0.2,0,0.2c0.1,0.4,0.1,0.9,0.1,1.3c0,0.2,0,0.4,0,0.6
	c-0.1,0.5-0.1,0.9-0.2,1.4c-0.3,1.1-0.7,2.1-1.3,2.9c-0.1,0.2-0.3,0.4-0.4,0.5c-0.2,0.2-0.4,0.4-0.5,0.6c-0.1,0.1-0.1,0.1-0.2,0.2
	c-0.4,0.3-0.8,0.7-1.3,1c-0.6,0.3-1.2,0.5-1.9,0.8c-0.4,0.1-0.7,0.1-1.1,0.2c-0.3,0.1-0.6,0.1-0.9,0.1c-0.1,0-0.3,0-0.4,0
	c-0.2,0-0.5,0-0.7,0.1c-0.1,0-0.3,0-0.4,0c-0.3,0.1-0.6,0-0.9,0c-0.6,0-1.2,0-1.9,0C6.9,28,3.4,28,0,28C0,18.7,0,9.3,0,0z M40.3,1.9
	v3.7h-11V1.9L40.3,1.9z M6.3,4.9c0,2.1,0,4.1,0,6.2c1.6,0,3.2,0,4.8,0c1.6,0,2.8,0,3.8-0.6c0.2-0.2,0.4-0.3,0.6-0.5
	C15.7,9.6,15.9,9.4,16,9c0.1-0.2,0-0.4,0.1-0.7c0-0.2,0.1-0.6,0-0.8c0-0.2-0.1-0.4-0.1-0.6c-0.2-0.5-0.4-1-0.8-1.3
	c-0.9-0.7-2.5-0.7-4.1-0.7C9.5,4.9,7.9,4.9,6.3,4.9z M44,18.6c-4.8,0-9.5,0-14.3,0c0,0.6,0.1,1.3,0.3,1.8c0.5,1.5,1.2,2.3,2.6,2.9
	c0.2,0.1,0.3,0.1,0.4,0.1c1,0.3,2.5,0.3,3.4-0.1c0.6-0.3,1.2-0.7,1.6-1.2c0.1-0.2,0.2-0.4,0.3-0.5c0,0,0.1-0.2,0.1-0.2
	c1.7,0,3.5,0,5.2,0c-0.1,1.3-0.8,2.2-1.4,3c-1.1,1.5-2.5,2.5-4.4,3.1c-0.4,0.1-0.9,0.2-1.3,0.3c-0.2,0-0.3,0-0.5,0.1
	c-0.3,0.1-0.6,0-0.9,0.1c-0.2,0-0.3,0-0.5,0c-0.2,0-0.5,0-0.7,0c-0.3-0.1-0.6,0-0.9,0c-0.2,0-0.4,0-0.6-0.1
	c-0.5-0.1-0.9-0.2-1.4-0.3c-2.8-1-4.9-2.5-6-5.2c-0.3-0.7-0.4-1.4-0.6-2.1c-0.1-0.3,0-0.6-0.1-0.9c-0.1-0.4-0.1-0.9-0.1-1.4
	c0-0.2,0-0.5,0-0.7c0-0.2,0-0.4,0-0.6c0-0.1,0-0.2,0-0.3c0-0.2,0-0.4,0-0.6c0.1-0.3,0-0.6,0.1-0.9c0.1-0.6,0.2-1.2,0.4-1.8
	c0.9-2.6,2.5-4.4,4.9-5.5c0.5-0.2,1-0.4,1.5-0.5c0.2-0.1,0.3,0,0.5-0.1c0.3-0.1,0.7-0.1,1-0.2c0.2,0,0.4,0,0.6,0c0.2,0,0.8-0.1,1,0
	c0.1,0,0.2,0,0.3,0c0.2,0,0.4,0,0.6,0.1c0.4,0.1,0.7,0.1,1.1,0.2c1,0.3,2,0.5,2.8,1c1.6,1,2.8,2.4,3.6,4.2c0.3,0.6,0.4,1.4,0.6,2.1
	c0,0.3,0.1,0.6,0.1,1c0,0.1,0,0.1,0,0.2c0,0.2,0,0.5,0.1,0.7c0,0.1,0,0.2,0,0.4c0,0.1,0,0.4,0,0.5c0,0.2,0,0.4,0,0.6
	C44,17.8,44,18.2,44,18.6z M38.7,15.1c0-0.5-0.1-1-0.2-1.3c-0.4-1.4-1.3-2.3-2.6-2.7c-1-0.3-2.5-0.3-3.4,0.1
	c-1.2,0.5-1.9,1.6-2.4,2.9c-0.1,0.3-0.1,0.7-0.2,1C32.8,15.1,35.7,15.1,38.7,15.1z M6.3,15.7c0,2.5,0,5,0,7.4c1.6,0,3.3,0,4.9,0
	c1.3,0,2.6,0,3.5-0.4c0.9-0.4,1.3-1,1.7-1.9c0.1-0.4,0.4-1.4,0.2-1.9c0-0.1,0-0.2,0-0.2c0-0.2-0.1-0.4-0.1-0.6
	c-0.3-0.8-0.7-1.3-1.3-1.7c-0.9-0.6-2.3-0.6-3.8-0.6C9.7,15.7,8,15.7,6.3,15.7z"/>
</svg>
