<?xml version="1.0" encoding="utf-8"?>
<!-- Generator: Adobe Illustrator 22.0.1, SVG Export Plug-In . SVG Version: 6.00 Build 0)  -->
<svg version="1.1" id="Warstwa_1" xmlns="http://www.w3.org/2000/svg" xmlns:xlink="http://www.w3.org/1999/xlink" x="0px" y="0px"
	 viewBox="0 0 600 600" style="enable-background:new 0 0 600 600;" xml:space="preserve">
<style type="text/css">
	.st0{fill:#E60021;}
</style>
<g>
	<g>
		<path class="st0" d="M391.5,433.8l29.8-29.7l-29.8-29.7L466,300L348.4,180L317,211.3l89.4,88.7l-74.5,74.3L391.5,433.8z
			 M405.8,120.9l-1.3-0.9l-58.1,58.1l-27.7-27.6l29.6-29.6L347,120l-29.4,29.4l-0.7-0.7L196,269.5l-60.9-60.7l-0.9,1.3l60.7,60.5
			l-27.7,27.6l-32.1-32l-0.9,1.3l31.9,31.8l-0.8,0.8l0.9,0.8L134,333.1l1.3,0.9l32-32l27.7,27.6l-61,60.9l1.3,0.9l60.7-60.7
			l121,120.7l0.8-0.8l29.5,29.4l0.9-1.3l-29.3-29.2l27.7-27.6l58.3,58.1l0.9-1.3l-58-57.9l0.8-0.8L228.1,300l120.3-120l-0.8-0.8
			L405.8,120.9z M170.6,300l26.9-26.9l26.1,26.1l-0.8,0.8l0.8,0.8l-26.1,26.1L170.6,300z M343.1,420L317,446.1L198.6,328l26.1-26.1
			L343.1,420z M224.7,298.2l-26.1-26.1L317,153.9l26.1,26.1L224.7,298.2z"/>
	</g>
</g>
</svg>
