<?xml version="1.0" encoding="utf-8"?>
<!-- Generator: Adobe Illustrator 22.0.1, SVG Export Plug-In . SVG Version: 6.00 Build 0)  -->
<svg version="1.1" id="Warstwa_1" xmlns="http://www.w3.org/2000/svg" xmlns:xlink="http://www.w3.org/1999/xlink" x="0px" y="0px"
	 viewBox="0 0 34 34" style="enable-background:new 0 0 34 34;" xml:space="preserve">
<style type="text/css">
	.st0{fill-rule:evenodd;clip-rule:evenodd;}
</style>
<path class="st0" d="M33.9,24c-0.1,1.8-0.4,3-0.8,4.1c-0.4,1.1-1,2.1-2,3c-0.9,0.9-1.9,1.5-3,2c-1.1,0.4-2.3,0.7-4.1,0.8
	C22.2,34,21.6,34,17,34c-4.6,0-5.2,0-7-0.1c-1.8-0.1-3-0.4-4.1-0.8c-1.1-0.4-2.1-1-3-2c-0.9-0.9-1.5-1.9-2-3
	c-0.4-1.1-0.7-2.3-0.8-4.1C0,22.2,0,21.6,0,17c0-4.6,0-5.2,0.1-7c0.1-1.8,0.4-3,0.8-4.1c0.4-1.1,1-2.1,2-3c0.9-0.9,1.9-1.5,3-2
	C6.9,0.5,8.2,0.2,10,0.1C11.8,0,12.4,0,17,0c4.6,0,5.2,0,7,0.1c1.8,0.1,3,0.4,4.1,0.8c1.1,0.4,2.1,1,3,2c0.9,0.9,1.5,1.9,2,3
	c0.4,1.1,0.7,2.3,0.8,4.1c0.1,1.8,0.1,2.4,0.1,7C34,21.6,34,22.2,33.9,24z M30.8,10.1c-0.1-1.7-0.4-2.6-0.6-3.2
	c-0.3-0.8-0.7-1.4-1.3-2c-0.6-0.6-1.2-1-2-1.3c-0.6-0.2-1.5-0.5-3.2-0.6c-1.8-0.1-2.3-0.1-6.9-0.1c-4.5,0-5.1,0-6.9,0.1
	C8.5,3.2,7.6,3.5,7,3.7C6.2,4.1,5.6,4.4,5,5c-0.6,0.6-1,1.2-1.3,2c-0.2,0.6-0.5,1.5-0.6,3.2c-0.1,1.8-0.1,2.3-0.1,6.9
	c0,4.5,0,5.1,0.1,6.9c0.1,1.7,0.4,2.6,0.6,3.2c0.3,0.8,0.7,1.4,1.3,2c0.6,0.6,1.2,1,2,1.3c0.6,0.2,1.5,0.5,3.2,0.6
	c1.8,0.1,2.3,0.1,6.9,0.1c4.5,0,5.1,0,6.9-0.1c1.7-0.1,2.6-0.4,3.2-0.6c0.8-0.3,1.4-0.7,2-1.3c0.6-0.6,1-1.2,1.3-2
	c0.2-0.6,0.5-1.5,0.6-3.2c0.1-1.8,0.1-2.3,0.1-6.9C30.9,12.5,30.9,11.9,30.8,10.1z M26.1,10c-1.1,0-2-0.9-2-2c0-1.1,0.9-2,2-2
	c1.1,0,2,0.9,2,2C28.1,9.1,27.2,10,26.1,10z M17,25.7c-4.8,0-8.7-3.9-8.7-8.7s3.9-8.7,8.7-8.7c4.8,0,8.7,3.9,8.7,8.7
	S21.8,25.7,17,25.7z M17,11.3c-3.1,0-5.7,2.5-5.7,5.7c0,3.1,2.5,5.7,5.7,5.7c3.1,0,5.7-2.5,5.7-5.7C22.7,13.9,20.1,11.3,17,11.3z"/>
</svg>
