<svg id="Warstwa_1" data-name="Warstwa 1" xmlns="http://www.w3.org/2000/svg" viewBox="0 0 36 36"><defs><style>.cls-1{fill-rule:evenodd;}</style></defs><title>Obszar roboczy 1</title><path class="cls-1" d="M18,0A18,18,0,1,0,36,18,18,18,0,0,0,18,0Zm8,16.78a29.73,29.73,0,0,0-3.2.17c-.06-.16-.13-.33-.2-.49-.25-.59-.53-1.19-.82-1.8a21.14,21.14,0,0,0,7.83-5.47,14.65,14.65,0,0,1,3,8.18A38.36,38.36,0,0,0,26,16.78ZM20.27,11.7a78.44,78.44,0,0,0-5.08-8,14.61,14.61,0,0,1,12.2,3.16A17.25,17.25,0,0,1,20.27,11.7ZM3.82,14.53A14.7,14.7,0,0,1,11.48,5a93.41,93.41,0,0,1,5.07,7.9A55.69,55.69,0,0,1,3.82,14.53Zm15.25,3.18-.15.05A24,24,0,0,0,6.78,27.37,14.58,14.58,0,0,1,3.39,18v0h.09a56.33,56.33,0,0,0,14.73-2.06C18.52,16.53,18.81,17.13,19.07,17.71ZM20.42,21a63.08,63.08,0,0,1,3,10.61A14.57,14.57,0,0,1,9.31,29.76C10.05,28.41,13.13,23.62,20.42,21Zm11.94-.28a14.68,14.68,0,0,1-5.68,9.06A66.58,66.58,0,0,0,24,20.1a19.55,19.55,0,0,1,2.56-.16A22.51,22.51,0,0,1,32.36,20.7Z"/></svg>