<?xml version="1.0" encoding="utf-8"?>
<!-- Generator: Adobe Illustrator 22.0.1, SVG Export Plug-In . SVG Version: 6.00 Build 0)  -->
<svg version="1.1" id="Warstwa_1" xmlns="http://www.w3.org/2000/svg" xmlns:xlink="http://www.w3.org/1999/xlink" x="0px" y="0px"
	 viewBox="0 0 36 30" style="enable-background:new 0 0 36 30;" xml:space="preserve">
<style type="text/css">
	.st0{fill-rule:evenodd;clip-rule:evenodd;}
</style>
<path class="st0" d="M36,3.5c-1.3,0.6-2.8,1-4.2,1.2c1.5-0.9,2.7-2.4,3.2-4.2c-1.4,0.9-3,1.5-4.7,1.8C29,0.9,27,0,24.9,0
	c-4.1,0-7.4,3.4-7.4,7.6c0,0.6,0.1,1.2,0.2,1.7C11.6,9,6.1,6,2.5,1.4c-0.6,1.1-1,2.4-1,3.8c0,2.6,1.3,4.9,3.3,6.3
	c-1.2,0-2.3-0.4-3.3-0.9c0,0,0,0.1,0,0.1c0,3.7,2.5,6.7,5.9,7.4c-0.6,0.2-1.3,0.3-1.9,0.3c-0.5,0-0.9,0-1.4-0.1
	c0.9,3,3.7,5.2,6.9,5.3c-2.5,2-5.7,3.2-9.2,3.2c-0.6,0-1.2,0-1.8-0.1C3.3,28.7,7.2,30,11.3,30c13.6,0,21-11.5,21-21.5
	c0-0.3,0-0.7,0-1C33.8,6.4,35,5.1,36,3.5z"/>
</svg>
